<svg xmlns="http://www.w3.org/2000/svg" width="720" height="520" viewBox="0 0 720 520" role="img" aria-label="Illustrated player profile JJ">
<defs><linearGradient id="g" x1="0" y1="0" x2="1" y2="1"><stop stop-color="#16a34a"/><stop offset="1" stop-color="#0ea5e9"/></linearGradient><filter id="s"><feDropShadow dx="0" dy="12" stdDeviation="14" flood-opacity=".2"/></filter></defs>
<rect width="720" height="520" rx="42" fill="#f8fafc"/><circle cx="600" cy="92" r="88" fill="#0ea5e9" opacity=".10"/><circle cx="102" cy="432" r="130" fill="#16a34a" opacity=".09"/>
<g filter="url(#s)"><rect x="94" y="70" width="532" height="380" rx="38" fill="white" stroke="#dbe4ee"/></g>
<circle cx="360" cy="226" r="112" fill="url(#g)" opacity=".18"/><path d="M360 118c-47 0-82 36-82 82 0 31 17 58 43 72-57 15-99 63-104 122h286c-5-59-47-107-104-122 26-14 43-41 43-72 0-46-35-82-82-82z" fill="url(#g)"/>
<g transform="translate(472 126) rotate(-18)"><rect x="0" y="0" width="62" height="118" rx="28" fill="#fff" stroke="#0ea5e9" stroke-width="8"/><rect x="22" y="102" width="18" height="77" rx="9" fill="#0ea5e9"/><circle cx="31" cy="45" r="18" fill="#16a34a" opacity=".75"/></g>
<circle cx="180" cy="154" r="28" fill="#facc15"/><circle cx="170" cy="145" r="3" fill="#fff"/><circle cx="190" cy="161" r="3" fill="#fff"/>
<rect x="268" y="402" width="184" height="58" rx="29" fill="url(#g)"/><text x="360" y="440" text-anchor="middle" font-family="Arial,sans-serif" font-size="28" font-weight="700" fill="white">JJ</text></svg>