<svg viewBox="0 0 660 420" xmlns="http://www.w3.org/2000/svg" role="img" aria-label="Pickleball accessories visual">
  <rect x="24" y="34" width="612" height="344" rx="28" fill="#eaf7f0" stroke="#1E6F5C" stroke-width="3"/>
  <rect x="90" y="92" width="170" height="56" rx="28" fill="#1E6F5C"/>
  <rect x="122" y="178" width="112" height="94" rx="24" fill="#1E6F5C" opacity=".74"/>
  <path d="M130 224h96M150 120h50" stroke="#fff" stroke-width="8" stroke-linecap="round" opacity=".9"/>
  <path d="M328 106c44-28 104 34 74 76l-74 112c-10 15-34 2-24-14l74-110c16-24-18-57-40-40l-56 40c-15 10-29-13-14-24z" fill="#3B5BDB" opacity=".94"/>
  <rect x="440" y="102" width="106" height="44" rx="22" fill="#F4B400"/>
  <rect x="456" y="178" width="74" height="116" rx="20" fill="#F4B400" opacity=".8"/>
  <path d="M465 124h56M474 222h38" stroke="#fff" stroke-width="7" stroke-linecap="round" opacity=".85"/>
  <path d="M126 326h408" stroke="#93a3ad" stroke-width="3" stroke-dasharray="8 8"/>
  <text x="330" y="370" text-anchor="middle" font-family="ui-sans-serif,system-ui" font-size="20" font-weight="800" fill="#14513f">Grip · Weight · Sweat · Maintenance</text>
</svg>
