<svg viewBox="0 0 660 420" xmlns="http://www.w3.org/2000/svg" role="img" aria-label="Pickleball apparel visual">
  <rect x="24" y="34" width="612" height="344" rx="28" fill="#fff4e8" stroke="#E0822E" stroke-width="3"/>
  <path d="M252 82l78 42 78-42 122 78-58 88-42-28v126H230V220l-42 28-58-88z" fill="#E0822E" opacity=".94"/>
  <path d="M260 88c8 60 132 60 140 0" fill="none" stroke="#fff" stroke-width="10" stroke-linecap="round" opacity=".74"/>
  <path d="M190 166l-22 38M470 166l22 38" stroke="#fff" stroke-width="8" stroke-linecap="round" opacity=".55"/>
  <circle cx="142" cy="104" r="26" fill="#fff" stroke="#E0822E" stroke-width="4"/>
  <path d="M130 104c10-14 25-14 34 0" fill="none" stroke="#E0822E" stroke-width="5" stroke-linecap="round"/>
  <circle cx="518" cy="104" r="26" fill="#fff" stroke="#E0822E" stroke-width="4"/>
  <path d="M508 96h20M508 106h20M508 116h14" stroke="#E0822E" stroke-width="5" stroke-linecap="round"/>
  <text x="330" y="370" text-anchor="middle" font-family="ui-sans-serif,system-ui" font-size="20" font-weight="800" fill="#8f5316">Movement · Sweat control · Weather</text>
</svg>
