<svg viewBox="0 0 660 420" xmlns="http://www.w3.org/2000/svg" role="img" aria-label="Gear Lab visual">
  <rect x="24" y="34" width="612" height="344" rx="28" fill="#eef3f8" stroke="#3B5BDB" stroke-width="3"/>
  <circle cx="120" cy="136" r="58" fill="#e7ebfb" stroke="#3B5BDB" stroke-width="3"/>
  <path d="M98 108c22-16 56 20 39 44l-24 36c-4 6-13 1-9-6l24-35c9-14-11-33-24-23l-20 14c-6 4-12-5-6-10z" fill="#3B5BDB"/>
  <circle cx="224" cy="136" r="58" fill="#e0f2fe" stroke="#0EA5E9" stroke-width="3"/>
  <path d="M190 148c18 4 36-3 48-22l16 18c6 6 16 7 19 19H188c-7 0-7-11 2-15z" fill="#0EA5E9"/>
  <circle cx="328" cy="136" r="58" fill="#fcefe2" stroke="#E0822E" stroke-width="3"/>
  <path d="M304 96l24 13 24-13 36 23-18 27-12-8v58h-60v-58l-12 8-18-27z" fill="#E0822E"/>
  <circle cx="432" cy="136" r="58" fill="#e7f1ed" stroke="#1E6F5C" stroke-width="3"/>
  <rect x="398" y="106" width="68" height="18" rx="9" fill="#1E6F5C"/>
  <rect x="410" y="146" width="44" height="34" rx="11" fill="#1E6F5C" opacity=".75"/>
  <path d="M100 260h430" stroke="#9aa9b5" stroke-width="3" stroke-dasharray="8 8"/>
  <rect x="114" y="242" width="114" height="58" rx="16" fill="#fff" stroke="#d8e1ea"/>
  <text x="171" y="277" text-anchor="middle" font-family="ui-sans-serif,system-ui" font-size="18" font-weight="800" fill="#1d2421">Fit</text>
  <rect x="274" y="242" width="114" height="58" rx="16" fill="#fff" stroke="#d8e1ea"/>
  <text x="331" y="277" text-anchor="middle" font-family="ui-sans-serif,system-ui" font-size="18" font-weight="800" fill="#1d2421">Feel</text>
  <rect x="434" y="242" width="114" height="58" rx="16" fill="#fff" stroke="#d8e1ea"/>
  <text x="491" y="277" text-anchor="middle" font-family="ui-sans-serif,system-ui" font-size="18" font-weight="800" fill="#1d2421">Verify</text>
</svg>
