<svg viewBox="0 0 660 380" xmlns="http://www.w3.org/2000/svg" role="img" aria-label="Pickleball skill illustration">
<text x="30" y="34" font-family="ui-sans-serif,system-ui,-apple-system,Segoe UI,Roboto,Helvetica,Arial,sans-serif" font-size="21" font-weight="700" fill="#1d2421">Level 3.5</text><text x="30" y="50" font-family="ui-sans-serif,system-ui,-apple-system,Segoe UI,Roboto,Helvetica,Arial,sans-serif" font-size="13" font-weight="500" fill="#5f6b66">Reset under pace · keep dinks low</text>
  <rect x="26" y="56" width="608" height="280" rx="16" fill="#eef3f0" stroke="#1E6F5C" stroke-width="3"/>
  <line x1="330" y1="56" x2="330" y2="336" stroke="#14513f" stroke-width="3.2"/>
  <line x1="270" y1="56" x2="270" y2="336" stroke="#1E6F5C" stroke-width="2" opacity="0.32"/>
  <line x1="390" y1="56" x2="390" y2="336" stroke="#1E6F5C" stroke-width="2" opacity="0.32"/>
  <line x1="26" y1="196" x2="270" y2="196" stroke="#1E6F5C" stroke-width="1.4" opacity="0.16"/>
  <line x1="390" y1="196" x2="634" y2="196" stroke="#1E6F5C" stroke-width="1.4" opacity="0.16"/>
  <circle cx="566" cy="120" r="9" fill="#e0653b" stroke="#fff" stroke-width="2.4"/>
  <circle cx="286" cy="178" r="9" fill="#1E6F5C" stroke="#fff" stroke-width="2.4"/>
  <line x1="556" y1="122" x2="304" y2="180" stroke="#e0653b" stroke-width="3.2" stroke-linecap="round"/>
  <polygon points="304,180 311.6,173.6 313.6,183" fill="#e0653b"/>
  <text x="468" y="108" font-family="ui-sans-serif,system-ui,-apple-system,Segoe UI,Roboto,Helvetica,Arial,sans-serif" font-size="14.5" font-weight="700" fill="#e0653b" text-anchor="start">Fast ball</text>
  <path d="M 304 180 Q 338 118 388 152" fill="none" stroke="#2563eb" stroke-width="4" stroke-linecap="round"/>
  <circle cx="388" cy="152" r="7" fill="#F4B400" stroke="#14513f" stroke-width="1.6"/>
  <text x="246" y="126" font-family="ui-sans-serif,system-ui,-apple-system,Segoe UI,Roboto,Helvetica,Arial,sans-serif" font-size="14.5" font-weight="700" fill="#2563eb" text-anchor="start">Reset</text>
  <path d="M 300 184 Q 334 168 364 182" fill="none" stroke="#1E6F5C" stroke-width="4" stroke-linecap="round"/>
  <text x="394" y="180" font-family="ui-sans-serif,system-ui,-apple-system,Segoe UI,Roboto,Helvetica,Arial,sans-serif" font-size="14.5" font-weight="700" fill="#1E6F5C" text-anchor="start">Low dink</text>
</svg>
