<svg viewBox="0 0 660 380" xmlns="http://www.w3.org/2000/svg" role="img" aria-label="Pickleball skill illustration">
<text x="30" y="34" font-family="ui-sans-serif,system-ui,-apple-system,Segoe UI,Roboto,Helvetica,Arial,sans-serif" font-size="21" font-weight="700" fill="#1d2421">Level 4.5</text><text x="30" y="50" font-family="ui-sans-serif,system-ui,-apple-system,Segoe UI,Roboto,Helvetica,Arial,sans-serif" font-size="13" font-weight="500" fill="#5f6b66">Hands battles · stacking and patterns</text>
  <rect x="26" y="56" width="608" height="280" rx="16" fill="#eef3f0" stroke="#1E6F5C" stroke-width="3"/>
  <line x1="330" y1="56" x2="330" y2="336" stroke="#14513f" stroke-width="3.2"/>
  <line x1="270" y1="56" x2="270" y2="336" stroke="#1E6F5C" stroke-width="2" opacity="0.32"/>
  <line x1="390" y1="56" x2="390" y2="336" stroke="#1E6F5C" stroke-width="2" opacity="0.32"/>
  <line x1="26" y1="196" x2="270" y2="196" stroke="#1E6F5C" stroke-width="1.4" opacity="0.16"/>
  <line x1="390" y1="196" x2="634" y2="196" stroke="#1E6F5C" stroke-width="1.4" opacity="0.16"/>
  <line x1="300" y1="150" x2="360" y2="150" stroke="#e0653b" stroke-width="3.2" stroke-linecap="round"/>
  <polygon points="360,150 351.2,154.8 351.2,145.2" fill="#e0653b"/>
  <line x1="366" y1="168" x2="306" y2="168" stroke="#e0653b" stroke-width="3.2" stroke-linecap="round"/>
  <polygon points="306,168 314.8,163.2 314.8,172.8" fill="#e0653b"/>
  <text x="396" y="142" font-family="ui-sans-serif,system-ui,-apple-system,Segoe UI,Roboto,Helvetica,Arial,sans-serif" font-size="14.5" font-weight="700" fill="#e0653b" text-anchor="start">Hands battle</text>
  <circle cx="118" cy="152" r="9" fill="#1E6F5C" stroke="#fff" stroke-width="2.4"/>
  <circle cx="168" cy="214" r="9" fill="#2563eb" stroke="#fff" stroke-width="2.4"/>
  <circle cx="176" cy="150" r="10" fill="none" stroke="#2563eb" stroke-width="2.2" stroke-dasharray="5 4"/>
  <circle cx="108" cy="214" r="10" fill="none" stroke="#1E6F5C" stroke-width="2.2" stroke-dasharray="5 4"/>
  <path d="M 118 152 Q 144 118 176 150" fill="none" stroke="#1E6F5C" stroke-width="2.8" stroke-dasharray="6 5" stroke-linecap="round"/>
  <polygon points="176,150 167.6,153.8 169.8,144.6" fill="#1E6F5C"/>
  <path d="M 168 214 Q 142 246 108 214" fill="none" stroke="#2563eb" stroke-width="2.8" stroke-dasharray="6 5" stroke-linecap="round"/>
  <polygon points="108,214 116.4,210.2 114.2,219.4" fill="#2563eb"/>
  <text x="62" y="250" font-family="ui-sans-serif,system-ui,-apple-system,Segoe UI,Roboto,Helvetica,Arial,sans-serif" font-size="14.5" font-weight="700" fill="#475569" text-anchor="start">Stacking switch</text>
</svg>
