<svg viewBox="0 0 660 380" xmlns="http://www.w3.org/2000/svg" role="img" aria-label="Pickleball skill illustration">
<text x="30" y="34" font-family="ui-sans-serif,system-ui,-apple-system,Segoe UI,Roboto,Helvetica,Arial,sans-serif" font-size="21" font-weight="700" fill="#1d2421">Level 2.0</text><text x="30" y="50" font-family="ui-sans-serif,system-ui,-apple-system,Segoe UI,Roboto,Helvetica,Arial,sans-serif" font-size="13" font-weight="500" fill="#5f6b66">Serve in · two-bounce rule · move to the kitchen</text>
  <rect x="26" y="56" width="608" height="280" rx="16" fill="#eef3f0" stroke="#1E6F5C" stroke-width="3"/>
  <line x1="330" y1="56" x2="330" y2="336" stroke="#14513f" stroke-width="3.2"/>
  <line x1="270" y1="56" x2="270" y2="336" stroke="#1E6F5C" stroke-width="2" opacity="0.32"/>
  <line x1="390" y1="56" x2="390" y2="336" stroke="#1E6F5C" stroke-width="2" opacity="0.32"/>
  <line x1="26" y1="196" x2="270" y2="196" stroke="#1E6F5C" stroke-width="1.4" opacity="0.16"/>
  <line x1="390" y1="196" x2="634" y2="196" stroke="#1E6F5C" stroke-width="1.4" opacity="0.16"/><path d="M 72 268 Q 316 18 560 138" fill="none" stroke="#F4B400" stroke-width="4" stroke-linecap="round"/><circle cx="560" cy="138" r="7" fill="#F4B400" stroke="#14513f" stroke-width="1.6"/><circle cx="72" cy="282" r="9" fill="#1E6F5C" stroke="#fff" stroke-width="2.4"/><line x1="92" y1="280" x2="226" y2="268" stroke="#475569" stroke-width="3.2" stroke-linecap="round" stroke-dasharray="5 6"/><polygon points="226.0,268.0 217.7,273.6 216.8,264.0" fill="#475569"/><circle cx="548" cy="150" r="7" fill="#F4B400" stroke="#14513f" stroke-width="1.6"/><circle cx="150" cy="250" r="7" fill="#F4B400" stroke="#14513f" stroke-width="1.6"/><text x="60" y="246" font-family="ui-sans-serif,system-ui,-apple-system,Segoe UI,Roboto,Helvetica,Arial,sans-serif" font-size="14.5" font-weight="700" fill="#1d2421" text-anchor="start">Serve</text><text x="232" y="262" font-family="ui-sans-serif,system-ui,-apple-system,Segoe UI,Roboto,Helvetica,Arial,sans-serif" font-size="14.5" font-weight="700" fill="#475569" text-anchor="start">Move up</text><text x="330" y="322" font-family="ui-sans-serif,system-ui,-apple-system,Segoe UI,Roboto,Helvetica,Arial,sans-serif" font-size="14.5" font-weight="700" fill="#5f6b66" text-anchor="middle">Let serve and return bounce</text>
</svg>
