<svg viewBox="0 0 660 380" xmlns="http://www.w3.org/2000/svg" role="img" aria-label="Pickleball skill illustration">
<text x="30" y="34" font-family="ui-sans-serif,system-ui,-apple-system,Segoe UI,Roboto,Helvetica,Arial,sans-serif" font-size="21" font-weight="700" fill="#1d2421">Level 4.0</text><text x="30" y="50" font-family="ui-sans-serif,system-ui,-apple-system,Segoe UI,Roboto,Helvetica,Arial,sans-serif" font-size="13" font-weight="500" fill="#5f6b66">Attack the high ball · target the feet</text>
  <rect x="26" y="56" width="608" height="280" rx="16" fill="#eef3f0" stroke="#1E6F5C" stroke-width="3"/>
  <line x1="330" y1="56" x2="330" y2="336" stroke="#14513f" stroke-width="3.2"/>
  <line x1="270" y1="56" x2="270" y2="336" stroke="#1E6F5C" stroke-width="2" opacity="0.32"/>
  <line x1="390" y1="56" x2="390" y2="336" stroke="#1E6F5C" stroke-width="2" opacity="0.32"/>
  <line x1="26" y1="196" x2="270" y2="196" stroke="#1E6F5C" stroke-width="1.4" opacity="0.16"/>
  <line x1="390" y1="196" x2="634" y2="196" stroke="#1E6F5C" stroke-width="1.4" opacity="0.16"/>
  <circle cx="536" cy="106" r="9" fill="#e0653b" stroke="#fff" stroke-width="2.4"/>
  <circle cx="282" cy="186" r="9" fill="#1E6F5C" stroke="#fff" stroke-width="2.4"/>
  <circle cx="176" cy="260" r="9" fill="#1E6F5C" stroke="#fff" stroke-width="2.4" opacity="0.92"/>
  <path d="M 528 110 Q 410 20 292 182" fill="none" stroke="#F4B400" stroke-width="4" stroke-linecap="round"/>
  <circle cx="292" cy="182" r="7" fill="#F4B400" stroke="#14513f" stroke-width="1.6"/>
  <text x="408" y="86" font-family="ui-sans-serif,system-ui,-apple-system,Segoe UI,Roboto,Helvetica,Arial,sans-serif" font-size="14.5" font-weight="700" fill="#5f6b66" text-anchor="start">High ball</text>
  <line x1="294" y1="184" x2="552" y2="274" stroke="#e0653b" stroke-width="3.2" stroke-linecap="round"/>
  <polygon points="552,274 542,275.4 545.8,266.2" fill="#e0653b"/>
  <circle cx="552" cy="274" r="7" fill="#F4B400" stroke="#14513f" stroke-width="1.6"/>
  <text x="384" y="248" font-family="ui-sans-serif,system-ui,-apple-system,Segoe UI,Roboto,Helvetica,Arial,sans-serif" font-size="14.5" font-weight="700" fill="#e0653b" text-anchor="start">Attack at the feet</text>
</svg>
