<svg viewBox="0 0 660 380" xmlns="http://www.w3.org/2000/svg" role="img" aria-label="Pickleball skill illustration">
<text x="30" y="34" font-family="ui-sans-serif,system-ui,-apple-system,Segoe UI,Roboto,Helvetica,Arial,sans-serif" font-size="21" font-weight="700" fill="#1d2421">Level 5.0</text><text x="30" y="50" font-family="ui-sans-serif,system-ui,-apple-system,Segoe UI,Roboto,Helvetica,Arial,sans-serif" font-size="13" font-weight="500" fill="#5f6b66">Every shot on demand · precision and patterns</text>
  <rect x="26" y="56" width="608" height="280" rx="16" fill="#eef3f0" stroke="#1E6F5C" stroke-width="3"/>
  <line x1="330" y1="56" x2="330" y2="336" stroke="#14513f" stroke-width="3.2"/>
  <line x1="270" y1="56" x2="270" y2="336" stroke="#1E6F5C" stroke-width="2" opacity="0.32"/>
  <line x1="390" y1="56" x2="390" y2="336" stroke="#1E6F5C" stroke-width="2" opacity="0.32"/>
  <line x1="26" y1="196" x2="270" y2="196" stroke="#1E6F5C" stroke-width="1.4" opacity="0.16"/>
  <line x1="390" y1="196" x2="634" y2="196" stroke="#1E6F5C" stroke-width="1.4" opacity="0.16"/>
  <line x1="74" y1="280" x2="286" y2="188" stroke="#F4B400" stroke-width="3.2" stroke-linecap="round"/>
  <polygon points="286,188 279.9,195.9 276,187.1" fill="#F4B400"/>
  <text x="70" y="300" font-family="ui-sans-serif,system-ui,-apple-system,Segoe UI,Roboto,Helvetica,Arial,sans-serif" font-size="14.5" font-weight="700" fill="#1d2421" text-anchor="start">Drive</text>
  <path d="M 96 292 Q 228 6 360 156" fill="none" stroke="#F4B400" stroke-width="4" stroke-linecap="round" stroke-dasharray="2 10"/>
  <text x="184" y="208" font-family="ui-sans-serif,system-ui,-apple-system,Segoe UI,Roboto,Helvetica,Arial,sans-serif" font-size="14.5" font-weight="700" fill="#5f6b66" text-anchor="start">Drop</text>
  <path d="M 300 152 Q 333 130 366 152" fill="none" stroke="#1E6F5C" stroke-width="4" stroke-linecap="round"/>
  <text x="396" y="140" font-family="ui-sans-serif,system-ui,-apple-system,Segoe UI,Roboto,Helvetica,Arial,sans-serif" font-size="14.5" font-weight="700" fill="#1E6F5C" text-anchor="start">Dink</text>
  <line x1="316" y1="142" x2="556" y2="288" stroke="#e0653b" stroke-width="3.2" stroke-linecap="round"/>
  <polygon points="556,288 546,287.5 551,279.3" fill="#e0653b"/>
  <circle cx="556" cy="288" r="7" fill="#F4B400" stroke="#14513f" stroke-width="1.6"/>
  <text x="430" y="250" font-family="ui-sans-serif,system-ui,-apple-system,Segoe UI,Roboto,Helvetica,Arial,sans-serif" font-size="14.5" font-weight="700" fill="#e0653b" text-anchor="start">Put-away</text>
</svg>
