<svg xmlns="http://www.w3.org/2000/svg" viewBox="0 0 720 420" role="img" aria-labelledby="title desc">
  <title id="title">Pro player profile card</title>
  <desc id="desc">A player profile card with skills, results, DUPR, and news modules.</desc>
  <rect width="720" height="420" rx="28" fill="#fbfaf5"/>
  <rect x="76" y="58" width="568" height="304" rx="22" fill="#fff" stroke="#e3e1d6" stroke-width="4"/>
  <circle cx="168" cy="154" r="58" fill="#e7f1ed" stroke="#1E6F5C" stroke-width="6"/>
  <circle cx="168" cy="135" r="25" fill="#1E6F5C" opacity=".9"/><path d="M112 224c18-42 94-42 112 0" fill="#1E6F5C" opacity=".9"/>
  <text x="260" y="116" font-family="Inter,Arial" font-size="30" font-weight="800" fill="#1d2421">Player profile</text>
  <text x="260" y="150" font-family="Inter,Arial" font-size="17" fill="#4f5b56">Skills • Results • DUPR • News</text>
  <g transform="translate(260 184)" font-family="Inter,Arial" font-size="16" fill="#1d2421">
    <rect x="0" y="0" width="145" height="46" rx="12" fill="#e7f1ed"/><text x="18" y="29" font-weight="700">Singles</text>
    <rect x="158" y="0" width="145" height="46" rx="12" fill="#fbe9b0"/><text x="176" y="29" font-weight="700">Doubles</text>
    <rect x="316" y="0" width="145" height="46" rx="12" fill="#e7f1ed"/><text x="334" y="29" font-weight="700">Mixed</text>
  </g>
  <path d="M114 286h422" stroke="#e3e1d6" stroke-width="4"/>
  <g fill="#f4b400"><path d="M574 126h44v22c0 34-22 52-44 52s-44-18-44-52v-22h44z"/><rect x="566" y="200" width="16" height="36"/><rect x="546" y="236" width="56" height="13" rx="5"/></g>
  <g font-family="Inter,Arial" font-size="15" fill="#4f5b56"><text x="114" y="320">Live stats should link to official ranking and DUPR sources.</text></g>
</svg>
