<svg xmlns="http://www.w3.org/2000/svg" width="720" height="420" viewBox="0 0 720 420" role="img" aria-labelledby="t d">
<title id="t">Skechers Viper Court Pro 2.0</title><desc id="d">Stable lateral support with a pickleball-first traction package.</desc>
<defs><linearGradient id="g" x1="0" y1="0" x2="1" y2="1"><stop offset="0%" stop-color="#0b5ed7"/><stop offset="100%" stop-color="#60a5fa"/></linearGradient></defs>
<rect width="720" height="420" rx="28" fill="#f8fafc"/>
<rect x="20" y="20" width="680" height="380" rx="24" fill="url(#g)" opacity="0.10"/>
<rect x="28" y="28" width="220" height="364" rx="24" fill="url(#g)"/>
<path d="M24 84c10 0 18-3 27-11l13-11c7 8 18 14 33 18 8 2 15 7 17 16H22c-7 0-10-8-5-12 2-1 4 0 7 0z" fill="#fff" fill-opacity="0.95"/><path d="M54 58l10 6M45 65l10 6M37 72h56" stroke="#1f2937" stroke-width="3" stroke-linecap="round" opacity="0.25" fill="none"/>
<rect x="40" y="286" width="90" height="28" rx="14" fill="#ffffff" fill-opacity="0.18"/>
<text x="85" y="305" text-anchor="middle" font-size="14" font-weight="700" fill="#ffffff">Court</text>
<text x="118" y="34" font-size="14" font-weight="700" fill="#0b5ed7">SKECHERS</text>
<text x="610" y="34" text-anchor="end" font-size="14" font-weight="700" fill="#60a5fa">SHOES</text>
<text x="118" y="60" font-size="20" font-weight="700" fill="#0f172a">Viper Court Pro</text><text x="118" y="82" font-size="20" font-weight="700" fill="#0f172a">2.0</text>
<text x="118" y="116" font-size="12" fill="#334155">Stable lateral support with a</text><text x="118" y="131" font-size="12" fill="#334155">pickleball-first traction package.</text>
<line x1="118" y1="156" x2="670" y2="156" stroke="#cbd5e1"/>
<text x="118" y="190" font-size="13" font-weight="700" fill="#475569">WHY PICKLARY LISTS IT</text>
<text x="118" y="212" font-size="13" fill="#334155">Pickleball-specific shoes</text>
<text x="118" y="246" font-size="13" font-weight="700" fill="#475569">SHOPPING ANGLE</text>
<text x="118" y="268" font-size="13" fill="#334155">Compare fit, surface match, and repeat-use value before buying.</text>
<rect x="118" y="318" width="176" height="34" rx="17" fill="#0b5ed7" opacity="0.10"/>
<text x="206" y="340" text-anchor="middle" font-size="13" font-weight="700" fill="#0b5ed7">Skechers · Court</text>
</svg>